<?xml version="1.0" encoding="utf-8" ?><svg xmlns="http://www.w3.org/2000/svg" xmlns:xlink="http://www.w3.org/1999/xlink" width="1024" height="1024" viewBox="0 0 1024 1024"><path fill="#0D47A1" d="M0 0L1024 0L1024 1024L0 1024L0 0Z"/><path fill="white" d="M424.205 215.276C453.19 242.965 482.013 270.824 510.672 298.852C520.978 308.75 531.989 320.342 543.021 329.401C544.662 330.748 552.313 331.644 554.981 332.285C567.827 335.344 582.313 337.826 595.439 340.589L714.211 365.297L746.505 372.219C750.661 373.081 759.389 374.54 763.109 375.601C760.121 377.159 753.007 378.518 749.443 379.252C749.621 389.621 748.531 399.67 748.646 409.847C757.637 405.688 764.953 402.327 774.254 399.101C811.357 386.233 849.402 387.391 886.059 400.972C892.687 403.428 898.94 406.229 905.454 409.009L905.346 420.529L905.415 447.055C905.528 454.506 905.566 461.957 905.529 469.409C893.656 464.946 875.678 459.209 863.449 465.243C877.429 476.02 895.377 490.596 905.299 505.381C905.491 510.625 905.523 515.873 905.396 521.118C905.404 528.033 905.598 536.007 905.315 542.837C892.663 528.908 880.32 519.954 864.597 509.907C826.097 485.306 781.296 468.635 735.535 466.149C682.165 463.25 632.975 477.901 587.735 505.739C572.628 515.035 558.627 525.286 543.873 534.429C525.965 545.321 507.891 555.938 489.659 566.278C449.756 588.74 414.517 606.952 369.485 618.01C344.637 624.112 333.187 623.422 308.805 625.067C307.599 626.573 303.84 624.723 301.373 625.663L300.888 625.563L300.819 625.645C301.967 626.21 305.101 625.707 305.41 627.333C327.187 632.205 353.374 630.887 375.421 628.701C454.311 620.879 520.715 583.629 589.658 547.973C610.298 537.155 631.608 527.669 653.46 519.573C715.053 497.004 769.06 496.067 831.29 518.301C849.799 524.914 860.745 530.886 877.97 538.879L877.638 539.968C859.171 530.107 821.344 523.775 800.738 521.724C742.537 515.931 680.249 530.171 629.228 558.588C565.174 594.264 503.477 635.466 431.173 653.162C372.747 669.05 315.371 666.667 257.592 650.28C190.542 631.264 133.695 581.918 116.278 512.44C135.316 518.354 146.64 522.124 167.202 522.209C198.967 522.34 224.044 511.271 252.247 498.762C248.976 496.737 235.024 492.362 230.637 490.885C219.842 487.337 209.122 483.564 198.485 479.567C180.968 472.957 163.597 465.964 146.386 458.594C136.222 454.202 126.26 449.394 116.106 444.996C116.115 432.525 116.571 416.669 115.9 404.505C118.653 403.577 138.846 411.358 143.196 412.612C168.652 419.951 209.736 420.723 235.074 413.789C233.572 412.825 224.758 409.999 222.374 409.145C217.919 407.525 213.546 405.689 209.269 403.643C175.784 387.543 156.098 367.691 116.072 366.438C116.179 358.352 116.153 350.396 116.379 342.288L116.448 327.424C146.416 329.396 163.643 334.203 190.483 347.31C200.723 352.377 210.582 358.18 219.983 364.671C238.852 377.465 257.812 395.3 283.229 389.991C290.245 388.525 309.109 373.301 315.812 368.168L313.33 356.021C317.437 351.864 323.831 343.598 327.486 338.964L351.725 307.666C375.53 276.593 399.692 245.794 424.205 215.276Z"/><path fill="#03F4FD" d="M424.205 215.276C453.19 242.965 482.013 270.824 510.672 298.852C520.978 308.75 531.989 320.342 543.021 329.401C544.662 330.748 552.313 331.644 554.981 332.285C554.961 335.604 555.059 339.959 554.665 343.152C548.228 338.529 538.408 332.759 533.04 328.032C531.793 351.74 529.526 375.595 527.956 399.296C526.64 419.147 524.586 438.828 524.343 458.736C511.934 453.938 503.586 450.34 490.747 446.307C477.789 441.981 465.052 439.717 451.67 437.303C439.064 435.697 429.566 434.683 416.882 435.054C405.122 436.015 392.737 437.372 381.28 440.316C368.483 442.86 354.194 447.867 342.199 452.949C338.771 427.972 335.945 402.931 332.086 377.995C331.086 371.528 330.073 364.088 329.715 357.597C325.123 361.463 320.662 364.654 315.812 368.168L313.33 356.021C317.437 351.864 323.831 343.598 327.486 338.964L351.725 307.666C375.53 276.593 399.692 245.794 424.205 215.276Z"/><path fill="#005DFE" d="M440.368 356.656C453.337 355.48 465.149 352.283 477.525 350.756L490.747 446.307C477.789 441.981 465.052 439.717 451.67 437.303C447.551 410.472 443.783 383.587 440.368 356.656Z"/><path fill="#005DFE" d="M370.747 368.221C382.941 366.95 395.681 363.758 407.818 362.809C410.472 386.854 414.286 410.873 416.882 435.054C405.122 436.015 392.737 437.372 381.28 440.316C377.402 418.2 373.5 390.515 370.747 368.221Z"/><path fill="#005DFE" d="M222.387 597.699C297.422 615.18 369.729 590.97 433.089 551.198C458.08 535.511 482.999 519.489 508.01 503.847C546.769 479.608 588.611 452.371 632.578 439.037C661.324 430.3 691.488 427.208 721.408 429.93C775.501 434.632 827.141 454.626 870.297 487.577C884.99 498.843 893.532 507.022 905.396 521.118C905.404 528.033 905.598 536.007 905.315 542.837C892.663 528.908 880.32 519.954 864.597 509.907C826.097 485.306 781.296 468.635 735.535 466.149C682.165 463.25 632.975 477.901 587.735 505.739C572.628 515.035 558.627 525.286 543.873 534.429C525.965 545.321 507.891 555.938 489.659 566.278C449.756 588.74 414.517 606.952 369.485 618.01C344.637 624.112 333.187 623.422 308.805 625.067C307.599 626.573 303.84 624.723 301.373 625.663L300.888 625.563L300.819 625.645C301.967 626.21 305.101 625.707 305.41 627.333C301.786 627.209 294.997 625.579 291.406 624.705C270.884 621.096 238.497 607.583 219.567 598.855C220.643 598.354 221.289 598.092 222.387 597.699Z"/><path fill="#011990" d="M291.406 624.705C293.536 624.503 306.026 624.871 308.805 625.067C307.599 626.573 303.84 624.723 301.373 625.663L300.888 625.563L300.819 625.645C301.967 626.21 305.101 625.707 305.41 627.333C301.786 627.209 294.997 625.579 291.406 624.705Z"/><path fill="#005DFE" d="M554.981 332.285C567.827 335.344 582.313 337.826 595.439 340.589L714.211 365.297L746.505 372.219C750.661 373.081 759.389 374.54 763.109 375.601C760.121 377.159 753.007 378.518 749.443 379.252C749.621 389.621 748.531 399.67 748.646 409.847C747.795 412.799 741.379 410.57 738.417 410.018C672.466 397.716 607.122 415.171 550.333 448.797C550.504 423.783 552.868 398.631 553.6 373.621C553.897 363.474 554.042 353.286 554.665 343.152C555.059 339.959 554.961 335.604 554.981 332.285Z"/><path fill="#005DFE" d="M115.9 404.505C124.176 413.736 218.143 453.161 234.068 459.12C245.058 463.163 256.088 467.099 267.156 470.926C273.795 473.215 283.065 476.134 289.264 479C278.423 485.072 263.33 493.6 252.247 498.762C248.976 496.737 235.024 492.362 230.637 490.885C219.842 487.337 209.122 483.564 198.485 479.567C180.968 472.957 163.597 465.964 146.386 458.594C136.222 454.202 126.26 449.394 116.106 444.996C116.115 432.525 116.571 416.669 115.9 404.505Z"/><path fill="#03F4FD" d="M772.414 418.857C772.821 418.609 773.233 418.369 773.649 418.136C777.657 415.912 783.43 414.16 787.913 412.68C816.325 403.304 847.633 404.235 876.532 410.923C886.372 413.201 895.349 417.647 904.773 420.368L905.346 420.529L905.415 447.055C905.528 454.506 905.566 461.957 905.529 469.409C893.656 464.946 875.678 459.209 863.449 465.243C844.013 450.713 830.274 443.297 808.774 431.908C795.051 426.166 786.607 423.003 772.414 418.857Z"/><path fill="#005DFE" d="M808.774 431.908C831.611 424.461 870.814 428.963 891.963 440.042C895.539 441.915 902.041 445.831 905.415 447.055C905.528 454.506 905.566 461.957 905.529 469.409C893.656 464.946 875.678 459.209 863.449 465.243C844.013 450.713 830.274 443.297 808.774 431.908Z"/><path fill="#005DFE" d="M116.379 342.288C162.212 347.013 182.119 361.871 220.758 385.227C234.459 393.509 243.62 399.702 259.03 404.73C252.254 407.738 242.228 412.191 235.074 413.789C233.572 412.825 224.758 409.999 222.374 409.145C217.919 407.525 213.546 405.689 209.269 403.643C175.784 387.543 156.098 367.691 116.072 366.438C116.179 358.352 116.153 350.396 116.379 342.288Z"/><path fill="#1565C0" d="M217.612 596.682C219.194 597.064 220.281 597.334 221.9 597.611L222.387 597.699C221.289 598.092 220.643 598.354 219.567 598.855C218.555 598.426 217.551 597.975 216.558 597.504L217.612 596.682Z"/><path fill="#29B6F6" d="M216.558 597.504C214.4 596.234 216.559 596.442 217.612 596.682L216.558 597.504Z"/><path fill="#005DFE" d="M135.659 539.282C239.477 563.2 304.774 473.396 400.866 458.139C433.991 452.879 479.573 457.755 510.044 473.007C502.942 477.179 496.35 482.338 489.604 486.229C481.727 491.246 473.957 496.43 466.3 501.778C435.256 522.518 404.095 543.981 371.256 561.857C359.027 568.515 345.928 572.676 332.675 576.627C297.314 588.019 260.853 592.592 224.004 585.405C222.426 585.095 220.854 584.756 219.289 584.387C209.483 583.257 185.248 572.151 176.022 567.605C173.546 566.362 171.85 565.509 169.549 563.939C156.819 556.73 145.817 549.984 133.513 542.166C130.804 540.476 128.904 538.871 126.433 536.859L135.659 539.282Z"/><path fill="#03F4FD" d="M135.659 539.282C239.477 563.2 304.774 473.396 400.866 458.139C433.991 452.879 479.573 457.755 510.044 473.007C502.942 477.179 496.35 482.338 489.604 486.229C479.505 482.951 468.545 482.641 457.972 482.495C417.79 481.942 380.256 492.072 344.564 510.13C290.849 537.307 243.23 579.461 178.906 565.68C177.934 566.305 176.972 566.947 176.022 567.605C173.546 566.362 171.85 565.509 169.549 563.939C156.819 556.73 145.817 549.984 133.513 542.166C130.804 540.476 128.904 538.871 126.433 536.859L135.659 539.282Z"/><path fill="#1565C0" d="M169.549 563.939C170.87 564.139 172.186 564.369 173.496 564.63C175.138 564.942 176.758 565.343 178.41 565.599L178.906 565.68C177.934 566.305 176.972 566.947 176.022 567.605C173.546 566.362 171.85 565.509 169.549 563.939Z"/><path fill="#0D47A1" d="M219.289 584.387C222.332 583.705 231.155 583.313 234.877 582.936C242.144 582.132 249.35 580.85 256.448 579.099C275.257 574.542 298.348 566.532 315.195 557.046C331.041 548.123 346.223 537.879 362.706 529.783C389.922 516.415 417.626 505.529 447.982 502.203C452.794 501.676 461.829 500.321 466.3 501.778C435.256 522.518 404.095 543.981 371.256 561.857C359.027 568.515 345.928 572.676 332.675 576.627C297.314 588.019 260.853 592.592 224.004 585.405C222.426 585.095 220.854 584.756 219.289 584.387Z"/><path fill="#0D47A1" d="M215.155 433.386C251.649 431.697 288.907 407.959 316.8 385.797L318.668 405.13C320.217 420.27 321.973 446.544 324.637 460.635L316.75 465.013C296.065 460.84 277.458 456.306 257.448 449.41C251.153 447.241 243.654 445.143 237.584 442.708C232.431 441.432 220.52 436.86 215.261 434.995L215.155 433.386Z"/><path fill="#005DFE" d="M215.155 433.386C251.649 431.697 288.907 407.959 316.8 385.797L318.668 405.13C312.683 409.477 306.973 414.277 300.957 418.502C289.096 426.833 274.446 433.24 260.494 437.408C255.959 438.733 251.364 439.85 246.726 440.754C244.693 441.165 239.017 442.114 237.584 442.708C232.431 441.432 220.52 436.86 215.261 434.995L215.155 433.386Z"/><path fill="#1565C0" d="M215.261 434.995L214.829 434.843C211.968 433.863 212.339 433.601 215.155 433.386L215.261 434.995Z"/><path fill="#005DFE" d="M402.593 157.089C416.427 160.489 429.578 163.033 443.338 166.136C471.351 172.671 499.416 178.984 527.53 185.072C570.945 194.747 614.759 205.311 658.398 213.725C672.838 227.545 686.463 241.595 700.71 255.382L738.051 291.86C744.072 297.744 751.81 304.913 757.57 310.888C767.159 308.252 774.98 307.647 784.761 307.113C827.074 304.798 867.205 321.791 905.548 337.83L905.538 353.502C905.575 361.746 905.789 370.732 905.563 378.918C905.546 383.129 905.459 387.34 905.301 391.548C879.241 380.316 854.381 371.78 825.696 369.129C819.632 368.568 808.937 369.078 802.576 369.27C799.552 373.207 795.862 377.76 793.048 381.768C784.517 379.866 771.566 376.911 763.109 375.601C759.389 374.54 750.661 373.081 746.505 372.219L714.211 365.297L595.439 340.589C582.313 337.826 567.827 335.344 554.981 332.285C552.313 331.644 544.662 330.748 543.021 329.401C531.989 320.342 520.978 308.75 510.672 298.852C482.013 270.824 453.19 242.965 424.205 215.276C420.413 210.781 407.729 199.309 402.754 194.462C398.483 201.199 392.728 208.602 387.938 215.126L362.397 249.785C331.957 290.243 301.96 331.033 272.411 372.146C269.998 364.618 266.838 350.78 265.04 342.921C274.905 328.205 287.076 312.984 297.661 298.658L368.92 202.317C379.587 187.924 392.625 171.488 402.593 157.089Z"/><path fill="white" d="M265.04 342.921C274.905 328.205 287.076 312.984 297.661 298.658L368.92 202.317C379.587 187.924 392.625 171.488 402.593 157.089C406.982 162.745 421.175 175.197 427.008 180.81C445.536 198.873 464.196 216.802 482.984 234.595L536.378 285.807C540.137 289.404 557.614 306.786 560.667 307.602C578.045 312.247 598.863 316.729 616.48 320.364L739.344 346.877L778.145 355.256C786.694 357.029 800.692 359.567 808.753 362.308C806.676 364.508 804.342 366.842 802.576 369.27C799.552 373.207 795.862 377.76 793.048 381.768C784.517 379.866 771.566 376.911 763.109 375.601C759.389 374.54 750.661 373.081 746.505 372.219L714.211 365.297L595.439 340.589C582.313 337.826 567.827 335.344 554.981 332.285C552.313 331.644 544.662 330.748 543.021 329.401C531.989 320.342 520.978 308.75 510.672 298.852C482.013 270.824 453.19 242.965 424.205 215.276C420.413 210.781 407.729 199.309 402.754 194.462C398.483 201.199 392.728 208.602 387.938 215.126L362.397 249.785C331.957 290.243 301.96 331.033 272.411 372.146C269.998 364.618 266.838 350.78 265.04 342.921Z"/><path fill="#03F4FD" d="M757.57 310.888C767.159 308.252 774.98 307.647 784.761 307.113C827.074 304.798 867.205 321.791 905.548 337.83L905.538 353.502C905.575 361.746 905.789 370.732 905.563 378.918C878.772 361.314 829.581 350.852 797.607 349.773C788.66 342.133 779.51 332.85 771.313 324.475C767.076 321.217 761.313 314.936 757.57 310.888Z"/><path fill="white" d="M757.57 310.888C767.159 308.252 774.98 307.647 784.761 307.113C827.074 304.798 867.205 321.791 905.548 337.83L905.538 353.502C900.03 350.542 889.561 346.508 883.533 344.139C844.755 328.899 812.614 324.094 771.313 324.475C767.076 321.217 761.313 314.936 757.57 310.888Z"/><path fill="white" d="M779.231 584.216C795.554 581.418 809.594 581.36 825.984 581.56C827.775 606.755 830.71 633.206 833.212 658.43C836.438 689.461 839.407 720.519 842.118 751.599C842.79 751.393 842.82 751.407 843.433 751.044L862.083 584.151C877.896 586.213 890.706 589.718 905.944 593.899L905.964 859.163L874.262 859.153L874.437 704.202C873.397 700.126 874.282 697.199 873.142 695.111C872.31 700.149 871.856 706.778 871.216 712.075C869.533 725.502 867.944 738.941 866.449 752.391C862.396 787.927 858.624 823.494 855.133 859.089C845.962 859.27 836.789 859.317 827.616 859.23C826.708 853.411 826.138 845.526 825.539 839.535L821.76 802.552C817.729 765.373 813.236 727.286 809.967 690.06L808.968 690.035C808.509 716.854 808.35 743.677 808.491 770.5L808.293 859.307C798.727 859.281 788.729 859.408 779.201 859.207L779.469 700.299C779.41 662.187 778.638 622.239 779.231 584.216Z"/><path fill="#0D47A1" d="M873.497 690.059L874.539 688.938C874.449 694.031 874.592 699.117 874.437 704.202C873.397 700.126 874.282 697.199 873.142 695.111C873.164 693.409 873.457 691.805 873.497 690.059Z"/><path fill="#686F97" d="M843.433 751.044C843.531 752.447 843.488 753.49 843.456 754.893C842.909 755.722 842.965 755.871 842.715 756.875C842.53 755.299 842.11 753.078 842.118 751.599C842.79 751.393 842.82 751.407 843.433 751.044Z"/><path fill="#686F97" d="M873.497 690.059C873.543 688.395 873.739 686.859 873.906 685.209L874.332 684.836L874.014 684.667C874.138 684.426 874.097 684.315 874.34 684.313C874.458 684.464 874.399 684.359 874.496 684.668L874.149 684.908L874.558 685.193C874.532 686.441 874.542 687.689 874.539 688.938L873.497 690.059Z"/><path fill="#686F97" d="M808.968 690.035C808.939 688.981 808.605 685.138 809.346 684.491L809.391 685.248C809.405 685.891 809.514 686.339 809.868 686.88C809.928 687.989 809.948 688.953 809.967 690.06L808.968 690.035Z"/><path fill="#C8CFE7" d="M842.715 756.875C842.965 755.871 842.909 755.722 843.456 754.893C843.426 755.613 843.387 757.161 842.807 757.689C842.658 757.483 842.719 757.099 842.715 756.875Z"/><path fill="#C8CFE7" d="M809.346 684.491C809.935 685.706 809.958 685.605 809.868 686.88C809.514 686.339 809.405 685.891 809.391 685.248L809.346 684.491Z"/><path fill="white" d="M570.867 646.691C579.784 644.973 592.383 648.442 598.757 655.103C610.15 667.008 612.44 686.347 612.516 702.002L612.507 767.422C612.549 796.642 616.911 838.768 585.357 854.354C576.477 858.74 569.463 859.058 559.75 859.067L517.755 859.296C517.13 827.132 517.536 793.023 517.609 760.761L517.65 656.792C533.412 653.393 555.353 648.681 570.867 646.691Z"/><path fill="#0D47A1" d="M562.807 684.631C574.322 683.232 578.204 692.057 578.357 702.187C578.741 731.509 578.402 760.87 578.44 790.199C578.455 801.465 578.889 816.971 566.992 822.67C561.757 823.819 556.387 823.491 551.022 823.43L551.028 686.712C554.325 686.388 559.425 685.268 562.807 684.631Z"/><path fill="white" d="M458.336 666.721C468.531 665.801 480.748 669.75 487.785 677.387C499.766 690.389 499.68 705.038 499.667 721.494L499.641 748.432C499.629 768.991 500.048 789.528 499.785 810.084C499.497 832.697 486.913 855.946 463.325 860.64C457.705 861.759 453.459 861.66 447.724 861.448C424.096 857.408 407.28 840.603 405.835 815.971C404.871 799.544 405.508 782.29 405.484 765.76L405.436 733.574C405.426 725.234 405.004 715.309 406.651 707.277C408.331 698.977 412.096 691.242 417.592 684.799C428.104 672.491 442.7 667.885 458.336 666.721Z"/><path fill="#0D47A1" d="M452.302 698.63C463.808 698.308 465.808 706.219 465.832 715.717C465.903 744.727 465.731 773.741 465.684 802.751C465.665 814.475 467.708 824.881 453.935 828.606C438.479 828.189 439.392 815.468 439.49 803.919C439.519 800.496 439.487 796.935 439.486 793.496L439.488 756.19L439.499 729.241C439.501 717.575 437.042 701.649 452.302 698.63Z"/><path fill="white" d="M337.096 673.197C347.286 671.986 359.289 674.666 367.994 680.022C391.028 694.194 390.838 715.011 390.759 738.627L390.75 768.253C390.8 780.154 391.6 808.326 390.158 818.438C389.057 826.269 386.362 833.79 382.238 840.537C374.705 852.67 364.829 857.945 351.338 861.1C322.333 864.903 300.679 847.369 296.54 818.406C295.508 811.182 295.917 803.251 295.922 795.916L295.966 763.199L295.936 732.876C295.92 713.016 295.642 690.65 315.728 679.311C322.541 675.466 329.382 674.061 337.096 673.197Z"/><path fill="#0D47A1" d="M339.012 704.09C350.989 702.837 356.205 708.337 356.351 719.816C356.665 744.497 356.432 769.207 356.427 793.892C356.425 802.457 356.932 811.826 355.177 820.135C354.367 823.969 350.545 826.655 347.345 828.321C336.062 829.921 330.113 823.528 330.036 812.518C329.816 780.687 329.926 748.805 330.077 716.972C330.11 709.988 332.707 706.729 339.012 704.09Z"/><path fill="white" d="M675.056 610.625C709.141 607.065 714.707 649.4 714.748 674.206C704.149 676.139 693.692 678.724 683.055 680.456C683.022 673.602 682.993 659.666 678.984 654.401C669.088 641.405 657.115 657.818 655.672 668.194C652.818 688.702 662.327 698.716 675.173 712.83C683.776 722.442 691.814 731.437 699.932 741.545C723.513 770.906 723.455 829.784 692.18 853.926C683.218 860.845 672.184 862.594 661.06 860.859C626.796 853.886 624.134 818.966 623.966 790.002C634.206 788.038 644.287 786.708 654.67 784.554C654.828 795.266 654.004 812.981 663.016 820.757C668.848 825.233 675.246 820.141 678.495 815.55C684.579 806.955 683.351 790.028 678.875 780.588C669.419 760.648 649.087 744.851 636.669 726.878C631.131 718.849 627.268 709.786 625.312 700.231C621.095 679.613 626.079 652.671 637.856 635.187C646.525 622.408 659.898 613.577 675.056 610.625Z"/><path fill="white" d="M116.554 555.35C118.217 557.073 123.192 567.096 124.832 569.95C142.284 600.316 167.271 623.69 196.502 642.217L196.51 677.761C180.763 670.608 164.384 663.695 148.509 656.606L148.437 715.317C157.771 716.416 175.653 720.382 185.626 722.228L185.686 763.354C176.123 762.144 166.574 760.831 157.041 759.414L148.499 758.313L148.485 859.093C137.834 858.982 127.182 858.959 116.531 859.024L116.554 555.35Z"/><path fill="white" d="M758.31 587.669C759.795 587.393 759.728 587.402 761.229 587.6C762 588.804 761.89 590.778 761.898 592.334L761.7 859.225L731.875 859.117C730.156 859.159 730.018 859.169 728.229 858.845C727.081 857.419 727.518 851.204 727.527 848.988C727.661 816.793 727.571 784.595 727.64 752.398L727.577 594.161C736.673 591.423 748.947 589.148 758.31 587.669Z"/><path fill="white" d="M205.197 647.206C218.77 653.266 224.184 656.156 239.081 660.35L239.227 824.425L289.013 824.502L288.918 859.315C261.23 858.815 233.039 859.352 205.28 859.218L205.197 647.206Z"/><path fill="white" d="M551.499 642.006C583.141 622.183 613.357 600.117 645.513 580.594C707.589 542.907 773.956 526.718 845.603 542.816C864.093 546.971 888.666 554.08 905.547 562.87L905.496 583.142C868.454 565.083 837.881 560.913 797.159 561.391C728.13 562.201 672.784 590.341 611.465 618.244C591.677 627.172 571.684 635.636 551.502 643.63L551.499 642.006Z"/><path fill="#1565C0" d="M882.342 541.04L882.993 541.297C884.254 541.759 886.172 542.814 887.274 543.602C887.252 543.675 887.23 543.748 887.208 543.821C886.421 543.975 882.357 542.08 881.336 541.672L882.342 541.04Z"/><path fill="#C8CFE7" d="M551.499 642.006L551.502 643.63C549.502 644.513 547.602 645.418 545.558 646.301C547.623 644.739 549.381 643.484 551.499 642.006Z"/><path fill="#C8CFE7" d="M877.97 538.879C879.456 539.589 880.84 540.338 882.342 541.04L881.336 541.672C880.15 540.972 878.916 540.482 877.638 539.968L877.97 538.879Z"/></svg>